<?xml version="1.0" standalone="no"?>
<!DOCTYPE svg PUBLIC "-//W3C//DTD SVG 20010904//EN"
 "http://www.w3.org/TR/2001/REC-SVG-20010904/DTD/svg10.dtd">
<svg version="1.0" xmlns="http://www.w3.org/2000/svg"
 width="500.000000pt" height="500.000000pt" viewBox="0 0 500.000000 500.000000"
 preserveAspectRatio="xMidYMid meet">

<g transform="translate(0.000000,500.000000) scale(0.100000,-0.100000)"
fill="#000000" stroke="none">
<path d="M470 4135 l0 -95 -190 0 -190 0 0 -1345 0 -1345 190 0 189 0 3 -92 3
-93 383 -3 382 -2 0 -95 0 -95 195 0 195 0 0 -95 0 -95 190 0 190 0 0 -95 0
-95 190 0 190 0 0 95 0 95 100 0 100 0 0 -95 0 -95 190 0 190 0 0 95 0 95 190
0 190 0 0 95 0 95 195 0 195 0 0 95 0 95 385 0 385 0 0 95 0 95 190 0 190 0 0
1345 0 1345 -190 0 -190 0 0 95 0 95 -385 0 -385 0 0 -95 0 -95 -195 0 -195 0
0 -95 0 -95 -190 0 -190 0 0 -95 0 -95 -95 0 -95 0 0 -95 0 -95 -95 0 -95 0 0
-100 0 -100 -100 0 -100 0 0 100 0 100 -95 0 -95 0 0 95 0 95 -95 0 -95 0 0
95 0 95 -190 0 -190 0 0 95 0 95 -195 0 -195 0 0 95 0 95 -385 0 -385 0 0 -95z
m770 -190 l0 -95 195 0 195 0 0 -95 0 -95 190 0 190 0 0 -95 0 -95 95 0 94 0
3 -97 3 -98 93 -5 92 -5 0 -475 c1 -261 1 -778 0 -1147 l0 -673 -95 0 -95 0 0
-95 0 -95 -95 0 -95 0 0 95 0 95 -190 0 -190 0 0 95 0 95 -195 0 -195 0 0 95
0 95 -385 0 -385 0 0 100 0 100 -95 0 -95 0 0 1150 0 1150 95 0 95 0 0 -1150
0 -1150 385 0 385 0 0 95 0 95 -285 0 -285 0 0 1150 0 1150 285 0 285 0 0 -95z
m3072 -1055 l3 -1150 -287 0 -288 0 0 -95 0 -95 385 0 385 0 0 1150 0 1150 95
0 95 0 0 -1150 0 -1150 -95 0 -95 0 0 -100 0 -100 -385 0 -385 0 0 -95 0 -95
-195 0 -195 0 0 -95 0 -95 -190 0 -190 0 0 -95 0 -95 -95 0 -95 0 0 95 0 95
-95 0 -95 0 -1 583 c0 320 0 602 -1 627 0 25 0 280 1 567 l1 522 93 3 92 3 3
98 3 97 94 0 95 0 0 95 0 95 190 0 190 0 0 95 0 95 195 0 195 0 0 95 0 95 285
0 285 0 2 -1150z"/>
<path d="M860 3370 l0 -100 190 0 190 0 0 -95 0 -95 195 0 195 0 0 -95 0 -95
190 0 190 0 0 -95 0 -95 95 0 95 0 0 95 0 95 -95 0 -95 0 0 95 0 95 -190 0
-190 0 0 95 0 95 -195 0 -195 0 0 100 0 100 -190 0 -190 0 0 -100z"/>
<path d="M860 2795 l0 -95 190 0 190 0 0 -95 0 -95 195 0 195 0 0 -98 0 -99
183 -1 c100 -1 185 -1 190 -2 4 0 7 -43 7 -95 l0 -95 95 0 95 0 0 95 0 95 -95
0 -95 0 0 100 0 100 -190 0 -189 0 -3 93 -3 92 -192 3 -193 2 0 95 0 95 -190
0 -190 0 0 -95z"/>
<path d="M860 2215 l0 -95 190 0 190 0 0 -95 0 -95 195 0 195 0 0 -95 0 -95
190 0 190 0 0 -95 0 -95 95 0 95 0 0 95 0 95 -95 0 -95 0 0 95 0 95 -190 0
-190 0 0 95 0 95 -195 0 -195 0 0 95 0 95 -190 0 -190 0 0 -95z"/>
<path d="M1240 1450 l0 -100 195 0 195 0 0 -95 0 -95 190 0 190 0 0 -95 0 -95
95 0 95 0 0 95 0 95 -95 0 -95 0 0 95 0 95 -190 0 -189 0 -3 98 -3 97 -192 3
-193 2 0 -100z"/>
<path d="M3740 3370 l0 -100 -195 0 -195 0 0 -95 0 -95 -190 0 -190 0 0 -95 0
-95 -95 0 -95 0 0 -95 0 -95 95 0 95 0 0 95 0 95 190 0 190 0 0 95 0 95 195 0
195 0 0 95 0 95 190 0 190 0 0 100 0 100 -190 0 -190 0 0 -100z"/>
<path d="M3740 2795 l0 -95 -192 -2 -193 -3 -3 -92 -3 -93 -72 -2 c-40 -1
-125 -2 -190 -2 l-117 -1 0 -97 0 -98 -95 0 -95 0 0 -95 0 -95 95 0 95 0 0 95
0 95 43 1 c23 0 108 1 190 1 l147 0 0 99 0 99 195 0 195 0 0 95 0 95 190 0
190 0 0 95 0 95 -190 0 -190 0 0 -95z"/>
<path d="M3740 2215 l0 -95 -195 0 -195 0 0 -95 0 -95 -190 0 -190 0 0 -95 0
-95 -95 0 -95 0 0 -95 0 -95 95 0 95 0 0 95 0 95 190 0 190 0 0 95 0 95 195 0
195 0 0 95 0 95 190 0 190 0 0 95 0 95 -190 0 -190 0 0 -95z"/>
<path d="M3354 1537 c-3 -8 -4 -52 -2 -98 l3 -84 193 -3 192 -2 0 100 0 100
-190 0 c-150 0 -192 -3 -196 -13z"/>
<path d="M2970 1255 l0 -95 -95 0 -95 0 0 -95 0 -95 95 0 95 0 0 95 0 95 190
0 190 0 0 95 0 95 -190 0 -190 0 0 -95z"/>
</g>
</svg>
