<?xml version="1.0" standalone="no"?>
<!DOCTYPE svg PUBLIC "-//W3C//DTD SVG 20010904//EN"
 "http://www.w3.org/TR/2001/REC-SVG-20010904/DTD/svg10.dtd">
<svg version="1.0" xmlns="http://www.w3.org/2000/svg"
 width="512.000000pt" height="512.000000pt" viewBox="0 0 512.000000 512.000000"
 preserveAspectRatio="xMidYMid meet">

<g transform="translate(0.000000,512.000000) scale(0.100000,-0.100000)"
fill="#000000" stroke="none">
<path d="M1970 4630 l0 -100 -197 -2 -198 -3 -3 -192 -2 -193 -95 0 -95 0 0
-100 0 -100 -100 0 -100 0 0 -590 0 -590 -195 0 -195 0 0 -1185 0 -1185 1770
0 1770 0 0 1185 0 1185 -195 0 -195 0 0 590 0 590 -100 0 -100 0 0 100 0 100
-95 0 -95 0 -2 193 -3 192 -197 3 -198 2 0 100 0 100 -590 0 -590 0 0 -100z
m982 -197 l3 -98 198 -3 197 -2 0 -195 0 -195 100 0 100 0 0 -100 0 -100 95 0
95 0 0 -490 0 -490 -195 0 -195 0 -2 393 -3 392 -97 3 -98 3 0 94 0 95 -100 0
-100 0 0 100 0 100 -390 0 -390 0 0 -100 0 -100 -100 0 -100 0 0 -95 0 -94
-97 -3 -98 -3 -3 -392 -2 -393 -195 0 -195 0 0 490 0 490 95 0 95 0 0 100 0
100 100 0 100 0 0 195 0 195 198 2 197 3 3 98 3 97 389 0 389 0 3 -97z m-192
-793 l0 -100 95 0 95 0 0 -95 0 -95 100 0 100 0 0 -295 0 -295 -590 0 -590 0
0 295 0 295 100 0 100 0 0 95 0 95 95 0 95 0 0 100 0 100 200 0 200 0 0 -100z
m1370 -2065 l0 -985 -1570 0 -1570 0 0 985 0 985 1570 0 1570 0 0 -985z"/>
</g>
</svg>
